<?xml version="1.0" encoding="UTF-8"?>
<svg xmlns="http://www.w3.org/2000/svg" viewBox="0 0 412.5 219.07">
  <defs>
    <style>
      .cls-1 {
        fill: #000;
      }

      .cls-1, .cls-2, .cls-3, .cls-4, .cls-5 {
        stroke-width: 0px;
      }

      .cls-2 {
        fill: #0083e5;
      }

      .cls-3 {
        fill: #005baa;
      }

      .cls-4 {
        fill: #fff;
      }

      .cls-5 {
        fill: #003e6d;
      }
    </style>
  </defs>
  <g id="Text">
    <g>
      <path class="cls-4" d="M115.85,126.93v-35.69h3.14l19.65,19.91c-.04-2.49-.09-4.9-.09-7.52v-12.13h8.3v35.69h-3.48l-19.26-19.61c.04,2.49.13,4.99.13,7.52v11.83h-8.38Z"/>
      <path class="cls-4" d="M174.67,117.64h-16.08c.73,2.11,2.67,3.27,6.11,3.27s5.38-.47,8.08-1.25v6.62c-1.03.47-4.6,1.33-8.6,1.33-8.81,0-13.72-5.55-13.72-12.43s5.07-12.43,12.38-12.43c6.79,0,12,4.86,12,11.95,0,.95-.09,1.98-.17,2.92ZM166.93,112.82c-.09-1.25-1.25-3.44-4.08-3.44-2.11,0-3.66,1.25-4.3,3.44h8.38Z"/>
      <path class="cls-4" d="M184.91,127.18l-10.49-23.65h9.07l3.96,11.14,4.95-11.39h3.22l4.82,11.39,3.96-11.14h8.9l-10.66,23.61h-4.13l-4.73-11.39-5.07,11.44h-3.78Z"/>
      <path class="cls-4" d="M213.63,125.98v-6.97c2.92,1.38,6.28,2.28,9.03,2.28,1.16,0,1.76-.39,1.76-1.21,0-.77-.56-1.2-2.45-1.59-6.19-1.29-8.77-4.13-8.77-8.13,0-4.73,3.74-7.44,10.02-7.44,3.1,0,6.02.56,8.26,1.08v6.88c-2.79-1.08-5.63-1.81-8.08-1.81-1.29,0-1.85.43-1.85,1.12,0,.65.47,1.16,2.45,1.59,5.89,1.25,8.77,3.61,8.77,8.04s-3.65,7.74-9.93,7.74c-3.91,0-7.14-.9-9.2-1.59Z"/>
      <path class="cls-4" d="M252.93,126.93v-27.78h-9.03v-7.65h26.62v7.65h-8.99v27.78h-8.6Z"/>
      <path class="cls-4" d="M266.74,115.23c0-7.14,5.8-12.38,13.03-12.38s12.99,5.25,12.99,12.38-5.81,12.43-12.99,12.43-13.03-5.29-13.03-12.43ZM284.19,115.23c0-2.92-1.89-4.99-4.43-4.99s-4.47,2.06-4.47,4.99,1.89,4.99,4.47,4.99,4.43-2.02,4.43-4.99Z"/>
      <path class="cls-4" d="M314.9,126.93v-15.31l-12.51-20.12h9.76l7.18,12.38,7.22-12.38h9.55l-12.81,20.12v15.31h-8.38Z"/>
      <path class="cls-4" d="M329.34,115.23c0-7.14,5.8-12.38,13.03-12.38s12.99,5.25,12.99,12.38-5.81,12.43-12.99,12.43-13.03-5.29-13.03-12.43ZM346.8,115.23c0-2.92-1.89-4.99-4.43-4.99s-4.47,2.06-4.47,4.99,1.89,4.99,4.47,4.99,4.43-2.02,4.43-4.99Z"/>
      <path class="cls-4" d="M358.76,117.98v-14.45h8.43v13.72c0,1.76,1.08,2.71,2.49,2.71s3.14-1.25,3.14-3.87v-12.56h8.43v23.39h-7.83v-2.67c-.9,1.38-3.01,3.27-6.67,3.27-4.13,0-8-2.71-8-9.55Z"/>
    </g>
  </g>
  <g id="Logo">
    <path class="cls-1" d="M99.92,155.56c8.78,6.48,19.98,8.32,30.65,8.26,21.93.12,41.74-9.83,62.24-16.47,20.79-6.67,42.98-9.75,64.75-7.01,10.94,1.32,21.4,4.72,31.74,7.71,10.35,3.03,20.98,4.89,31.77,5.24,7.72.17,16.96.41,22.49-5.81,1.74-2.01,2.56-5,1.11-7.41,1.59,2.36.93,5.53-.75,7.69-5.38,6.66-15.03,6.86-22.87,7-5.45-.04-10.9-.44-16.31-1.2-10.79-1.45-21.24-4.78-31.73-7.44-26.09-6.78-53.81-4.02-79.33,3.94-20.48,6.47-41.09,16-63.11,15.24-10.79-.39-22.15-2.66-30.63-9.72h0Z"/>
    <path class="cls-1" d="M103.59,162.9h0c-2.83.95-5.92-.41-7.17-3.14l-16.81-36.81,20.76-6.96,7.1,40.34c.5,2.86-1.14,5.65-3.88,6.57Z"/>
    <rect class="cls-1" x="62.22" y="94.93" width="39" height="4.11" transform="translate(-26.59 31.02) rotate(-18.54)"/>
    <rect class="cls-5" x="66.36" y="98.36" width="39" height="21.89" transform="translate(-30.3 32.97) rotate(-18.54)"/>
    <polygon class="cls-2" points="64.13 105.85 97.15 117.07 70.94 126.11 64.13 105.85"/>
    <g>
      <path class="cls-3" d="M92.51,69.97c-1.9-2.83-4.5-5.06-7.47-6.51l-3.95,7.93,8.59,4.27,2.83-5.69Z"/>
      <path class="cls-3" d="M80.46,71.07l3.94-7.92c-2.85-1.27-6.02-1.85-9.23-1.6l-2.75,5.52,8.04,4Z"/>
      <rect class="cls-3" x="78.13" y="73.65" width="9.59" height="9.59" transform="translate(-24.25 117.73) rotate(-63.54)"/>
      <rect class="cls-2" x="65.05" y="78.45" width="8.98" height="8.98" transform="translate(-35.7 108.23) rotate(-63.54)"/>
      <path class="cls-2" d="M60.5,91.02c1.74,2.71,4.11,4.89,6.85,6.4l3.9-7.83-8.04-4-2.7,5.43Z"/>
      <path class="cls-2" d="M66.73,64.24l5.06,2.52,2.55-5.13c-1.28.15-2.56.44-3.82.86-1.35.45-2.61,1.05-3.79,1.75Z"/>
      <rect class="cls-2" x="69.19" y="69.51" width="9.59" height="8.98" transform="translate(-25.23 107.26) rotate(-63.54)"/>
      <rect class="cls-3" x="73.99" y="82.59" width="8.98" height="9.59" transform="translate(-34.73 118.71) rotate(-63.54)"/>
      <path class="cls-2" d="M60.06,90.32l2.51-5.04-5-2.49c.15,1.32.44,2.65.88,3.96s.97,2.46,1.62,3.57Z"/>
      <path class="cls-3" d="M91.74,92.4c.63-.82,1.2-1.67,1.69-2.58l-8.03-4-4,8.04,2.4,1.2,7.93-2.66Z"/>
      <path class="cls-2" d="M71.47,67.39l-5.44-2.71c-2.85,1.89-5.1,4.47-6.58,7.44l7.74,3.85,4.27-8.59Z"/>
      <path class="cls-3" d="M92.95,70.66l-2.65,5.32,5.36,2.67c-.15-1.36-.43-2.73-.89-4.08s-1.09-2.7-1.82-3.91Z"/>
      <path class="cls-3" d="M95.73,79.46l-5.74-2.86-4.27,8.59,8.04,4c1.48-2.97,2.19-6.32,1.97-9.73Z"/>
      <polygon class="cls-3" points="82.86 95.37 81.09 94.49 80.21 96.26 82.86 95.37"/>
      <path class="cls-2" d="M62.89,84.64l4-8.04-7.73-3.85c-1.29,2.84-1.89,5.99-1.67,9.2l5.39,2.68Z"/>
      <path class="cls-3" d="M79.26,96.58l1.2-2.4-8.59-4.27-3.91,7.85c1.16.59,2.39,1.05,3.65,1.4l7.65-2.56Z"/>
    </g>
    <polygon class="cls-1" points="345.19 133.07 351.9 144.68 338.49 144.68 345.19 133.07"/>
  </g>
</svg>