<svg width="34" height="39" viewBox="0 0 34 39" fill="none" xmlns="http://www.w3.org/2000/svg">
<g clip-path="url(#clip0_2136_176)">
<path d="M17.0075 10.7402C12.1808 10.7402 8.28745 14.6479 8.28745 19.4924C8.28745 24.3369 12.1808 28.2445 17.0075 28.2445C21.8343 28.2445 25.7276 24.3369 25.7276 19.4924C25.7276 14.6479 21.8343 10.7402 17.0075 10.7402ZM17.0075 25.1824C13.8883 25.1824 11.3383 22.6307 11.3383 19.4924C11.3383 16.3541 13.8808 13.8023 17.0075 13.8023C20.1343 13.8023 22.6767 16.3541 22.6767 19.4924C22.6767 22.6307 20.1267 25.1824 17.0075 25.1824ZM28.1183 10.3822C28.1183 11.5172 27.2075 12.4236 26.0843 12.4236C24.9535 12.4236 24.0504 11.5096 24.0504 10.3822C24.0504 9.25488 24.9611 8.34082 26.0843 8.34082C27.2075 8.34082 28.1183 9.25488 28.1183 10.3822ZM33.8937 12.4541C33.7647 9.71953 33.1424 7.29727 31.1464 5.30156C29.158 3.30586 26.7446 2.68125 24.02 2.54414C21.212 2.38418 12.7955 2.38418 9.98746 2.54414C7.27049 2.67363 4.8571 3.29824 2.86112 5.29395C0.865133 7.28965 0.250401 9.71192 0.113794 12.4465C-0.0455811 15.2648 -0.0455811 23.7123 0.113794 26.5307C0.242812 29.2652 0.865133 31.6875 2.86112 33.6832C4.8571 35.6789 7.2629 36.3035 9.98746 36.4406C12.7955 36.6006 21.212 36.6006 24.02 36.4406C26.7446 36.3111 29.158 35.6865 31.1464 33.6832C33.1348 31.6875 33.7571 29.2652 33.8937 26.5307C34.0531 23.7123 34.0531 15.2725 33.8937 12.4541ZM30.266 29.5547C29.6741 31.0477 28.5281 32.1979 27.033 32.7996C24.7942 33.6908 19.4817 33.4852 17.0075 33.4852C14.5334 33.4852 9.21335 33.6832 6.9821 32.7996C5.4946 32.2055 4.34862 31.0553 3.74906 29.5547C2.86112 27.3076 3.06603 21.9756 3.06603 19.4924C3.06603 17.0092 2.8687 11.6695 3.74906 9.43008C4.34103 7.93711 5.48701 6.78692 6.9821 6.18516C9.22094 5.29395 14.5334 5.49961 17.0075 5.49961C19.4817 5.49961 24.8017 5.30156 27.033 6.18516C28.5205 6.7793 29.6665 7.92949 30.266 9.43008C31.154 11.6772 30.9491 17.0092 30.9491 19.4924C30.9491 21.9756 31.154 27.3152 30.266 29.5547Z" fill="white"/>
</g>
<defs>
<clipPath id="clip0_2136_176">
<rect width="34" height="39" fill="white"/>
</clipPath>
</defs>
</svg>
